<svg width="29" height="30" viewBox="0 0 29 30" fill="none" xmlns="http://www.w3.org/2000/svg">
<path d="M14.5 29.5C22.5081 29.5 29 23.0081 29 15C29 6.99187 22.5081 0.5 14.5 0.5C6.49187 0.5 0 6.99187 0 15C0 23.0081 6.49187 29.5 14.5 29.5Z" fill="#F5F5F5"/>
<path fill-rule="evenodd" clip-rule="evenodd" d="M9.61137 16.6772C9.84046 17.8122 10.7869 18.6216 11.8575 18.6216H19.4528C20.5458 18.6199 21.4737 17.8261 21.7097 16.692L22.9816 10.5982C23.0325 10.3547 22.9762 10.1013 22.8304 9.90693C22.6839 9.7134 22.4633 9.60024 22.2288 9.60024H9.76332L9.06836 6.14866C8.99199 5.77062 8.67806 5.5 8.31399 5.5H6.77133C6.34556 5.5 6 5.86738 6 6.32005C6 6.77271 6.34556 7.14009 6.77133 7.14009H7.68999L8.37956 10.5605C8.38216 10.5792 8.38587 10.5967 8.38975 10.6151C8.39046 10.6185 8.39118 10.6219 8.3919 10.6253L9.61137 16.6772ZM11.1201 16.3336L10.0935 11.2403H21.2685L20.2041 16.3369C20.1262 16.7092 19.8107 16.9807 19.4528 16.9807H11.8914C11.5166 16.9725 11.1972 16.7182 11.1201 16.3336Z" fill="#FA7ECA"/>
<path d="M11.3608 23.5C12.2127 23.5 12.9034 22.7657 12.9034 21.8599C12.9034 20.9541 12.2127 20.2198 11.3608 20.2198C10.5088 20.2198 9.8181 20.9541 9.8181 21.8599C9.8181 22.7657 10.5088 23.5 11.3608 23.5Z" fill="#FA7ECA"/>
<path d="M19.8454 23.5C20.6974 23.5 21.3881 22.7657 21.3881 21.8599C21.3881 20.9541 20.6974 20.2198 19.8454 20.2198C18.9934 20.2198 18.3027 20.9541 18.3027 21.8599C18.3027 22.7657 18.9934 23.5 19.8454 23.5Z" fill="#FA7ECA"/>
</svg>
