<svg width="11" height="11" viewBox="0 0 11 11" fill="none" xmlns="http://www.w3.org/2000/svg">
<path d="M5.82875 0.571032C5.76698 0.445876 5.63951 0.36664 5.49995 0.36664C5.36038 0.36664 5.23291 0.445876 5.17115 0.571032L3.67012 3.61249L0.31398 4.09986C0.175856 4.11992 0.0610982 4.21665 0.0179616 4.34939C-0.0251749 4.48213 0.0107917 4.62785 0.110738 4.72528L2.53933 7.09259L1.96586 10.4356C1.94227 10.5732 1.99881 10.7122 2.11173 10.7943C2.22464 10.8763 2.37434 10.8871 2.49788 10.8222L5.49995 9.24379L8.50201 10.8222C8.62555 10.8871 8.77525 10.8763 8.88816 10.7943C9.00108 10.7122 9.05763 10.5732 9.03403 10.4356L8.46056 7.09259L10.8892 4.72528C10.9891 4.62785 11.0251 4.48213 10.9819 4.34939C10.9388 4.21665 10.824 4.11992 10.6859 4.09986L7.32978 3.61249L5.82875 0.571032Z" fill="#F29F05"/>
</svg>
