<svg width="21" height="21" viewBox="0 0 21 21" fill="none" xmlns="http://www.w3.org/2000/svg">
<path d="M11.2809 14.6652V13.8842H9.71897V14.6652H11.2809ZM9.71897 14.6791V15.4601H11.2809V14.6791H9.71897ZM9.71897 5.64047V11.1942H11.2809V5.64047H9.71897ZM9.71897 14.6652V14.6791H11.2809V14.6652H9.71897ZM10.5 19.4379C5.56365 19.4379 1.56198 15.4363 1.56198 10.5H0C0 16.2989 4.70099 20.9999 10.5 20.9999V19.4379ZM19.4379 10.5C19.4379 15.4363 15.4363 19.4379 10.5 19.4379V20.9999C16.2989 20.9999 20.9999 16.2989 20.9999 10.5H19.4379ZM10.5 1.56198C15.4363 1.56198 19.4379 5.56365 19.4379 10.5H20.9999C20.9999 4.70099 16.2989 0 10.5 0V1.56198ZM10.5 0C4.70099 0 0 4.70099 0 10.5H1.56198C1.56198 5.56365 5.56365 1.56198 10.5 1.56198V0Z" fill="#8185C6"/>
</svg>
