<svg width="26" height="26" viewBox="0 0 26 26" fill="none" xmlns="http://www.w3.org/2000/svg">
<path d="M8.66667 13.8667V10.759L11.2667 8.15899L13.8667 10.759V13.8667H8.66667Z" fill="#030A8C"/>
<path fill-rule="evenodd" clip-rule="evenodd" d="M0 11.2667C0 5.04426 5.04426 0 11.2667 0C17.4891 0 22.5334 5.04426 22.5334 11.2667C22.5334 14.0659 21.5125 16.6267 19.8228 18.5971L25.7462 24.5205L24.5206 25.7461L18.5972 19.8227C16.6268 21.5125 14.0659 22.5334 11.2667 22.5334C5.04426 22.5334 0 17.4891 0 11.2667ZM15.3462 9.78718L11.8795 6.32051C11.541 5.98206 10.9923 5.98206 10.6539 6.32051L7.18718 9.78718C7.02465 9.94971 6.93334 10.1702 6.93334 10.4V14.7333C6.93334 15.212 7.32136 15.6 7.80001 15.6H14.7333C15.212 15.6 15.6 15.212 15.6 14.7333V10.4C15.6 10.1702 15.5087 9.94971 15.3462 9.78718Z" fill="#030A8C"/>
</svg>
