<svg width="15" height="15" viewBox="0 0 15 15" fill="none" xmlns="http://www.w3.org/2000/svg">
<path d="M8.375 13.6875L7.5 12.8125L9.71875 10.5938L4.40625 5.28125L2.1875 7.5L1.3125 6.625L2.1875 5.71875L1.3125 4.84375L2.625 3.53125L1.75 2.625L2.625 1.75L3.53125 2.625L4.84375 1.3125L5.71875 2.1875L6.625 1.3125L7.5 2.1875L5.28125 4.40625L10.5938 9.71875L12.8125 7.5L13.6875 8.375L12.8125 9.28125L13.6875 10.1562L12.375 11.4688L13.25 12.375L12.375 13.25L11.4688 12.375L10.1562 13.6875L9.28125 12.8125L8.375 13.6875Z" fill="#8185C6"/>
</svg>
