<svg width="21" height="21" viewBox="0 0 21 21" fill="none" xmlns="http://www.w3.org/2000/svg">
<path d="M6.63908 0.780991H3.55785C2.02423 0.780991 0.780991 2.02423 0.780991 3.55785V6.3347C0.780991 14.0028 6.9972 20.219 14.6653 20.219H17.4421C18.9757 20.219 20.219 18.9757 20.219 17.4421V15.5234C20.219 14.9975 19.9219 14.5167 19.4515 14.2815L16.0971 12.6043C15.3414 12.2265 14.4262 12.6056 14.159 13.4071L13.7456 14.6474C13.4778 15.4508 12.6537 15.9291 11.8233 15.763C8.49967 15.0983 5.90171 12.5003 5.23699 9.1767C5.07091 8.34629 5.54917 7.52217 6.35256 7.25437L7.89181 6.74129C8.58009 6.51186 8.97569 5.79121 8.79973 5.08737L7.98605 1.83268C7.83153 1.21459 7.27618 0.780991 6.63908 0.780991Z" stroke="#8185C6" stroke-width="1.5"/>
</svg>
