<svg width="15" height="15" viewBox="0 0 15 15" fill="none" xmlns="http://www.w3.org/2000/svg">
<g clip-path="url(#clip0_313_3649)">
<path d="M3.50002 0L2.50002 5.5C2.35402 6.305 4.28202 6.681 4.25002 7.5L4.00002 14C3.96202 15 5.00002 15 5.00002 15C5.00002 15 6.03802 15 6.00002 14L5.75002 7.5C5.71902 6.682 7.48302 6.32 7.50002 5.5L6.50002 0H6.00002L6.25002 4L5.50002 4.5L5.25002 0H4.75002L4.50002 4.5L3.75002 4L4.00002 0H3.50002ZM12 0C11.264 0 10.036 0.655 9.54502 1.637C9.13502 2.373 9.00002 4.018 9.00002 5V7.5C9.00002 8.318 10.09 8.5 10.5 8.5L10 14C9.91002 14.996 11 15 11 15C11 15 12 15 12 14V0Z" fill="#8185C6"/>
</g>
<defs>
<clipPath id="clip0_313_3649">
<rect width="15" height="15" fill="white"/>
</clipPath>
</defs>
</svg>
