<svg width="164" height="155" viewBox="0 0 164 155" fill="none" xmlns="http://www.w3.org/2000/svg">
<circle cx="81.0466" cy="88.6744" r="63.8837" fill="#F29F05"/>
<circle cx="157.802" cy="30.9884" r="6.19767" fill="#F29F05"/>
<ellipse cx="10.0116" cy="9.53488" rx="10.0116" ry="9.53488" fill="#F29F05"/>
<ellipse cx="4.76744" cy="130.151" rx="4.76744" ry="5.24419" fill="#F29F05"/>
<ellipse cx="146.361" cy="152.558" rx="2.38372" ry="1.90698" fill="#F29F05"/>
<path d="M76.3006 105.95C74.9457 105.95 73.591 105.369 72.8168 104.208L61.9786 90.2727C60.4302 88.3373 60.8174 85.6278 62.7528 84.0794C64.6881 82.5311 67.3977 82.9182 68.9461 84.8536L76.3006 94.3371L92.5581 73.2412C94.1064 71.3058 96.816 70.9186 98.7514 72.467C100.687 74.0153 101.074 76.7249 99.5256 78.6603L79.7843 104.208C78.8166 105.175 77.6554 105.95 76.3006 105.95Z" fill="white"/>
<circle cx="108.221" cy="98.686" r="2.38372" fill="white"/>
<circle cx="45.7674" cy="72.4651" r="3.81395" fill="white"/>
<circle cx="101.547" cy="51.9651" r="1.43023" fill="white"/>
<circle cx="61.9768" cy="119.186" r="1.90698" fill="white"/>
<circle cx="82.9535" cy="73.4186" r="0.953488" fill="white"/>
</svg>
