<svg width="19" height="19" viewBox="0 0 19 19" fill="none" xmlns="http://www.w3.org/2000/svg">
<path d="M13.3533 13.9482L18.1699 9.13163M18.1699 9.13163L13.3533 4.31502M18.1699 9.13163H6.61002M9.49998 13.9482C9.49998 14.233 9.49998 14.3753 9.4894 14.4987C9.3794 15.7804 8.43537 16.8352 7.1736 17.086C7.05221 17.1102 6.91059 17.1259 6.6277 17.1573L5.64375 17.2667C4.16557 17.4309 3.42644 17.513 2.83926 17.3251C2.05634 17.0746 1.41716 16.5025 1.08169 15.752C0.830092 15.1892 0.830092 14.4455 0.830092 12.9582V5.30502C0.830092 3.81772 0.830092 3.07407 1.08169 2.51122C1.41716 1.76076 2.05634 1.18866 2.83926 0.938127C3.42645 0.750224 4.16555 0.832346 5.64375 0.996591L6.6277 1.10592C6.91069 1.13736 7.05219 1.15308 7.1736 1.17722C8.43537 1.4281 9.3794 2.48282 9.4894 3.76459C9.49998 3.88792 9.49998 4.03029 9.49998 4.31502" stroke="#B71C1D" stroke-width="1.65" stroke-linecap="round" stroke-linejoin="round"/>
</svg>
