<svg width="15" height="15" viewBox="0 0 15 15" fill="none" xmlns="http://www.w3.org/2000/svg">
<path d="M3.96875 9.59375L2.65625 8.25C3.27083 7.63542 3.99229 7.14854 4.82062 6.78937C5.64896 6.43021 6.54208 6.25042 7.5 6.25C8.45833 6.25 9.35167 6.43229 10.18 6.79688C11.0083 7.16146 11.7296 7.65625 12.3438 8.28125L11.0312 9.59375C10.5729 9.13542 10.0417 8.77604 9.4375 8.51562C8.83333 8.25521 8.1875 8.125 7.5 8.125C6.8125 8.125 6.16667 8.25521 5.5625 8.51562C4.95833 8.77604 4.42708 9.13542 3.96875 9.59375ZM1.3125 6.9375L0 5.625C0.958333 4.64583 2.07812 3.88021 3.35938 3.32812C4.64062 2.77604 6.02083 2.5 7.5 2.5C8.97917 2.5 10.3594 2.77604 11.6406 3.32812C12.9219 3.88021 14.0417 4.64583 15 5.625L13.6875 6.9375C12.8854 6.13542 11.9556 5.50771 10.8981 5.05437C9.84062 4.60104 8.70792 4.37458 7.5 4.375C6.29167 4.375 5.15875 4.60167 4.10125 5.055C3.04375 5.50833 2.11417 6.13583 1.3125 6.9375ZM7.5 13.125L9.70312 10.9062C9.42188 10.625 9.09375 10.4035 8.71875 10.2419C8.34375 10.0802 7.9375 9.99958 7.5 10C7.0625 10 6.65625 10.0808 6.28125 10.2425C5.90625 10.4042 5.57812 10.6254 5.29688 10.9062L7.5 13.125Z" fill="#8185C6"/>
</svg>
