<svg width="14" height="14" viewBox="0 0 14 14" fill="none" xmlns="http://www.w3.org/2000/svg">
<mask id="mask0_403_2830" style="mask-type:luminance" maskUnits="userSpaceOnUse" x="0" y="0" width="14" height="14">
<path d="M12.1093 3.16794V7H1.89046M6.99988 3.16794V10.8321M1.89046 3.16794V10.8321" stroke="white" stroke-width="1.2" stroke-linecap="round" stroke-linejoin="round"/>
<path d="M13.3866 1.89058C13.3866 2.22936 13.2521 2.55426 13.0125 2.79381C12.773 3.03336 12.4481 3.16794 12.1093 3.16794C11.7705 3.16794 11.4456 3.03336 11.2061 2.79381C10.9665 2.55426 10.8319 2.22936 10.8319 1.89058C10.8319 1.55181 10.9665 1.22691 11.2061 0.987358C11.4456 0.747808 11.7705 0.61323 12.1093 0.61323C12.4481 0.61323 12.773 0.747808 13.0125 0.987358C13.2521 1.22691 13.3866 1.55181 13.3866 1.89058ZM8.27723 1.89058C8.27723 2.22936 8.14265 2.55426 7.9031 2.79381C7.66355 3.03336 7.33865 3.16794 6.99988 3.16794C6.6611 3.16794 6.3362 3.03336 6.09665 2.79381C5.8571 2.55426 5.72252 2.22936 5.72252 1.89058C5.72252 1.55181 5.8571 1.22691 6.09665 0.987358C6.3362 0.747808 6.6611 0.61323 6.99988 0.61323C7.33865 0.61323 7.66355 0.747808 7.9031 0.987358C8.14265 1.22691 8.27723 1.55181 8.27723 1.89058ZM3.16781 1.89058C3.16781 2.22936 3.03324 2.55426 2.79368 2.79381C2.55413 3.03336 2.22923 3.16794 1.89046 3.16794C1.55168 3.16794 1.22678 3.03336 0.987233 2.79381C0.747683 2.55426 0.613105 2.22936 0.613105 1.89058C0.613105 1.55181 0.747683 1.22691 0.987233 0.987358C1.22678 0.747808 1.55168 0.61323 1.89046 0.61323C2.22923 0.61323 2.55413 0.747808 2.79368 0.987358C3.03324 1.22691 3.16781 1.55181 3.16781 1.89058ZM8.27723 12.1094C8.27723 12.4482 8.14265 12.7731 7.9031 13.0126C7.66355 13.2522 7.33865 13.3868 6.99988 13.3868C6.6611 13.3868 6.3362 13.2522 6.09665 13.0126C5.8571 12.7731 5.72252 12.4482 5.72252 12.1094C5.72252 11.7706 5.8571 11.4457 6.09665 11.2062C6.3362 10.9666 6.6611 10.8321 6.99988 10.8321C7.33865 10.8321 7.66355 10.9666 7.9031 11.2062C8.14265 11.4457 8.27723 11.7706 8.27723 12.1094ZM3.16781 12.1094C3.16781 12.4482 3.03324 12.7731 2.79368 13.0126C2.55413 13.2522 2.22923 13.3868 1.89046 13.3868C1.55168 13.3868 1.22678 13.2522 0.987233 13.0126C0.747683 12.7731 0.613105 12.4482 0.613105 12.1094C0.613105 11.7706 0.747683 11.4457 0.987233 11.2062C1.22678 10.9666 1.55168 10.8321 1.89046 10.8321C2.22923 10.8321 2.55413 10.9666 2.79368 11.2062C3.03324 11.4457 3.16781 11.7706 3.16781 12.1094ZM12.1093 13.3868C12.4481 13.3868 12.773 13.2522 13.0125 13.0126C13.2521 12.7731 13.3866 12.4482 13.3866 12.1094C13.3866 11.7706 13.2521 11.4457 13.0125 11.2062C12.773 10.9666 12.4481 10.8321 12.1093 10.8321C11.7705 10.8321 11.4456 10.9666 11.2061 11.2062C10.9665 11.4457 10.8319 11.7706 10.8319 12.1094C10.8319 12.4482 10.9665 12.7731 11.2061 13.0126C11.4456 13.2522 11.7705 13.3868 12.1093 13.3868Z" fill="white" stroke="white" stroke-width="1.2" stroke-linecap="round" stroke-linejoin="round"/>
</mask>
<g mask="url(#mask0_403_2830)">
<path d="M-0.664249 -0.664124H14.664V14.6641H-0.664249V-0.664124Z" fill="#8185C6"/>
</g>
</svg>
