<svg width="15" height="15" viewBox="0 0 15 15" fill="none" xmlns="http://www.w3.org/2000/svg">
<path d="M4.31253 3C4.16334 3 4.02027 3.05926 3.91478 3.16475C3.80929 3.27024 3.75003 3.41332 3.75003 3.5625V3.9375C3.75003 4.08668 3.69077 4.22976 3.58528 4.33525C3.47979 4.44074 3.33671 4.5 3.18753 4.5C3.03834 4.5 2.89527 4.44074 2.78978 4.33525C2.68429 4.22976 2.62503 4.08668 2.62503 3.9375V3.5625C2.62503 3.11495 2.80282 2.68572 3.11929 2.36926C3.43575 2.05279 3.86498 1.875 4.31253 1.875C4.76008 1.875 5.1893 2.05279 5.50577 2.36926C5.82224 2.68572 6.00003 3.11495 6.00003 3.5625V5.625H9.75003V3.5625C9.75003 3.41332 9.69076 3.27024 9.58528 3.16475C9.47979 3.05926 9.33671 3 9.18753 3C9.03834 3 8.89527 3.05926 8.78978 3.16475C8.68429 3.27024 8.62503 3.41332 8.62503 3.5625V3.9375C8.62503 4.08668 8.56576 4.22976 8.46028 4.33525C8.35479 4.44074 8.21171 4.5 8.06253 4.5C7.91334 4.5 7.77027 4.44074 7.66478 4.33525C7.55929 4.22976 7.50003 4.08668 7.50003 3.9375V3.5625C7.50003 3.11495 7.67782 2.68572 7.99429 2.36926C8.31075 2.05279 8.73998 1.875 9.18753 1.875C9.63508 1.875 10.0643 2.05279 10.3808 2.36926C10.6972 2.68572 10.875 3.11495 10.875 3.5625V8.83575C10.5115 8.95179 10.1315 9.00753 9.75003 9.00075V6.75H6.00003V7.67175C5.63195 7.57686 5.25484 7.52129 4.87503 7.506V3.5625C4.87503 3.41332 4.81577 3.27024 4.71028 3.16475C4.60479 3.05926 4.46171 3 4.31253 3ZM4.35978 9.39525C3.92356 9.44036 3.50675 9.59886 3.15078 9.855C3.03093 9.94391 2.88068 9.98158 2.73306 9.95971C2.58545 9.93783 2.45257 9.85822 2.36365 9.73837C2.27474 9.61853 2.23708 9.46827 2.25895 9.32066C2.28082 9.17304 2.36043 9.04016 2.48028 8.95125C2.99547 8.57713 3.59988 8.34488 4.23303 8.27775C5.09028 8.18025 6.16203 8.3445 7.40853 9.06675C9.60828 10.3433 11.3858 9.501 11.9063 9.19575C12.035 9.12026 12.1884 9.09899 12.3328 9.13662C12.4771 9.17424 12.6007 9.26768 12.6762 9.39637C12.7516 9.52507 12.7729 9.67848 12.7353 9.82286C12.6977 9.96724 12.6042 10.0908 12.4755 10.1663C11.7893 10.569 9.54678 11.6077 6.84303 10.0402C5.78553 9.42675 4.95528 9.32775 4.35978 9.39525ZM4.35978 11.6453C3.92356 11.6904 3.50675 11.8489 3.15078 12.105C3.03093 12.1939 2.88068 12.2316 2.73306 12.2097C2.58545 12.1878 2.45257 12.1082 2.36365 11.9884C2.27474 11.8685 2.23708 11.7183 2.25895 11.5707C2.28082 11.423 2.36043 11.2902 2.48028 11.2013C2.99547 10.8271 3.59988 10.5949 4.23303 10.5278C5.09028 10.4303 6.16203 10.5945 7.40853 11.3167C9.60828 12.5933 11.3858 11.751 11.9063 11.4457C12.035 11.3703 12.1884 11.349 12.3328 11.3866C12.4771 11.4242 12.6007 11.5177 12.6762 11.6464C12.7516 11.7751 12.7729 11.9285 12.7353 12.0729C12.6977 12.2172 12.6042 12.3408 12.4755 12.4163C11.7893 12.819 9.54678 13.8577 6.84303 12.2902C5.78553 11.6767 4.95528 11.5778 4.35978 11.6453Z" fill="#8185C6"/>
</svg>
