<svg width="21" height="21" viewBox="0 0 21 21" fill="none" xmlns="http://www.w3.org/2000/svg">
<path d="M4.94626 16.0437H5.72725V15.2627H4.94626V16.0437ZM4.94626 20.2062H4.16527C4.16527 20.502 4.33236 20.7724 4.59688 20.9047C4.86141 21.037 5.17798 21.0085 5.41466 20.8312L4.94626 20.2062ZM10.5 16.0437V15.2627H10.2398L10.0316 15.4187L10.5 16.0437ZM6.33468 5.55005H5.5537V7.11203H6.33468V5.55005ZM14.6652 7.11203H15.4462V5.55005H14.6652V7.11203ZM6.33468 9.71261H5.5537V11.2746H6.33468V9.71261ZM11.8884 11.2746H12.6694V9.71261H11.8884V11.2746ZM4.16527 16.0437V20.2062H5.72725V16.0437H4.16527ZM5.41466 20.8312L10.9684 16.6686L10.0316 15.4187L4.47786 19.5813L5.41466 20.8312ZM10.5 16.8246H18.8305V15.2627H10.5V16.8246ZM18.8305 16.8246C20.0291 16.8246 20.9999 15.8553 20.9999 14.6562H19.4379C19.4379 14.9916 19.1675 15.2627 18.8305 15.2627V16.8246ZM20.9999 14.6562V2.16848H19.4379V14.6562H20.9999ZM20.9999 2.16848C20.9999 0.969353 20.0291 0 18.8305 0V1.56198C19.1675 1.56198 19.4379 1.83301 19.4379 2.16848H20.9999ZM18.8305 0H2.16941V1.56198H18.8305V0ZM2.16941 0C0.970786 0 0 0.969353 0 2.16848H1.56198C1.56198 1.83301 1.83244 1.56198 2.16941 1.56198V0ZM0 2.16848V14.6562H1.56198V2.16848H0ZM0 14.6562C0 15.8553 0.970786 16.8246 2.16941 16.8246V15.2627C1.83244 15.2627 1.56198 14.9916 1.56198 14.6562H0ZM2.16941 16.8246H4.94626V15.2627H2.16941V16.8246ZM6.33468 7.11203H14.6652V5.55005H6.33468V7.11203ZM6.33468 11.2746H11.8884V9.71261H6.33468V11.2746Z" fill="#8185C6"/>
</svg>
