<svg width="20" height="20" viewBox="0 0 20 20" fill="none" xmlns="http://www.w3.org/2000/svg">
<path d="M4.66665 0L4.66665 11.3333M4.66665 11.3333C3.19389 11.3333 1.99998 12.5272 1.99998 14C1.99998 15.4728 3.19389 16.6667 4.66665 16.6667M4.66665 11.3333C6.13941 11.3333 7.33332 12.5272 7.33332 14C7.33332 15.4728 6.13941 16.6667 4.66665 16.6667M4.66665 16.6667V20M15.3333 0L15.3333 3.33333M15.3333 3.33333C13.8606 3.33333 12.6667 4.52724 12.6667 6C12.6667 7.47276 13.8606 8.66667 15.3333 8.66667M15.3333 3.33333C16.8061 3.33333 18 4.52724 18 6C18 7.47276 16.8061 8.66667 15.3333 8.66667M15.3333 8.66667V20" stroke="#8185C6" stroke-width="1.23282"/>
</svg>
