<svg width="26" height="26" viewBox="0 0 26 26" fill="none" xmlns="http://www.w3.org/2000/svg">
<path fill-rule="evenodd" clip-rule="evenodd" d="M20.8 3.46667H23.4C24.8359 3.46667 26 4.63072 26 6.06666V23.4C26 24.8359 24.8359 26 23.4 26H2.6C1.16406 26 0 24.8359 0 23.4V6.06666C0 4.63072 1.16406 3.46667 2.6 3.46667H5.2V0H6.93333V3.46667H19.0667V0H20.8V3.46667ZM10.4 13.8667H5.2V12.1333H10.4V13.8667ZM20.8 12.1333H15.6V13.8667H20.8V12.1333ZM10.4 19.0667H5.2V17.3333H10.4V19.0667ZM15.6 19.0667H20.8V17.3333H15.6V19.0667Z" fill="#030A8C"/>
</svg>
