<svg width="16" height="16" viewBox="0 0 16 16" fill="none" xmlns="http://www.w3.org/2000/svg">
<path d="M12.7367 15.3683H15.3682V13.7894C15.3682 12.336 14.19 11.1579 12.7367 11.1579M9.05249 3.78747C9.05249 5.53052 7.63882 6.94326 5.89464 6.94326C4.15045 6.94326 2.73678 5.53052 2.73678 3.78747C2.73678 2.04442 4.15045 0.631674 5.89464 0.631674C7.63882 0.631674 9.05249 2.04442 9.05249 3.78747ZM11.1577 15.3587H0.631545C0.631545 14.6113 0.631545 13.9003 0.631545 13.2564C0.631545 11.5123 2.04536 10.0991 3.7894 10.0991H7.99987C9.74391 10.0991 11.1577 11.5123 11.1577 13.2564C11.1577 13.9003 11.1577 14.6113 11.1577 15.3587ZM12.2103 9.05262C11.0477 9.05262 10.1051 8.11007 10.1051 6.94738C10.1051 5.78469 11.0477 4.84215 12.2103 4.84215C13.373 4.84215 14.3156 5.78469 14.3156 6.94738C14.3156 8.11007 13.373 9.05262 12.2103 9.05262Z" stroke="#01021C" stroke-width="1.2"/>
</svg>
