<svg width="20" height="21" viewBox="0 0 20 21" fill="none" xmlns="http://www.w3.org/2000/svg">
    <path d="M4.65847 0.643799L4.65847 11.8214M4.65847 11.8214C3.20594 11.8214 2.02844 12.9989 2.02844 14.4514C2.02844 15.904 3.20594 17.0815 4.65847 17.0815M4.65847 11.8214C6.11099 11.8214 7.28849 12.9989 7.28849 14.4514C7.28849 15.904 6.11099 17.0815 4.65847 17.0815M4.65847 17.0815V20.369M15.1786 0.643799L15.1786 3.93133M15.1786 3.93133C13.726 3.93133 12.5485 5.10883 12.5485 6.56136C12.5485 8.01388 13.726 9.19138 15.1786 9.19138M15.1786 3.93133C16.6311 3.93133 17.8086 5.10883 17.8086 6.56136C17.8086 8.01388 16.6311 9.19138 15.1786 9.19138M15.1786 9.19138V20.369" stroke="#8185C6" stroke-width="1.23282"/>
</svg>
